<svg width="176" height="74" viewBox="0 0 176 74" fill="none" xmlns="http://www.w3.org/2000/svg">
<path d="M96.4605 24.0889C97.8765 24.0842 99.2787 24.3693 100.58 24.9267C101.849 25.467 103.004 26.2421 103.985 27.2113C104.966 28.1945 105.756 29.3513 106.315 30.623C106.891 31.9332 107.184 33.35 107.175 34.7811C107.183 36.1902 106.91 37.5867 106.374 38.8899C105.838 40.1931 105.049 41.3771 104.053 42.3735C103.056 43.3699 101.872 44.1589 100.569 44.6948C99.2661 45.2308 97.8695 45.5031 96.4605 45.4961C94.7439 45.5242 93.0451 45.1458 91.5028 44.3918V49.5247C91.5056 49.8962 91.432 50.2644 91.2866 50.6063C91.1412 50.9482 90.927 51.2566 90.6575 51.5123C90.3902 51.7803 90.0718 51.9919 89.7212 52.1345C89.3706 52.2771 88.995 52.3478 88.6165 52.3424C87.8861 52.3487 87.1807 52.0764 86.6441 51.5808C86.3677 51.3401 86.1443 51.0445 85.9883 50.7128C85.8323 50.3811 85.747 50.0205 85.7378 49.6541V34.8039C85.7335 33.3855 86.0267 31.982 86.5984 30.684C87.7272 28.1238 89.7727 26.0783 92.3329 24.9495C93.6342 24.3797 95.0398 24.0866 96.4605 24.0889ZM91.5028 34.8039C91.4899 35.4711 91.6145 36.1339 91.8686 36.751C92.1228 37.368 92.5011 37.9262 92.9802 38.3908C93.4434 38.8354 93.9859 39.1893 94.5795 39.4341C95.1754 39.6825 95.8149 39.8093 96.4605 39.8073C97.1311 39.816 97.7959 39.6809 98.41 39.4113C98.9829 39.1494 99.5001 38.7797 99.9331 38.3223C100.379 37.8631 100.733 37.3229 100.976 36.7307C101.228 36.1196 101.355 35.4646 101.35 34.8039C101.354 34.1411 101.219 33.4847 100.954 32.8772C100.701 32.2913 100.339 31.7588 99.8874 31.3084C99.4503 30.8674 98.9335 30.5133 98.3643 30.2651C97.123 29.7527 95.7294 29.7527 94.4881 30.2651C93.9021 30.5176 93.3697 30.8794 92.9193 31.3313C92.4782 31.7683 92.1242 32.2852 91.876 32.8544C91.6177 33.4713 91.4906 34.1352 91.5028 34.8039Z" fill="#12172E"/>
<path d="M120.723 24.1338C123.334 24.4251 125.743 25.6796 127.478 27.6522C128.326 28.6211 129.001 29.7288 129.473 30.9269C129.973 32.1585 130.231 33.4743 130.235 34.8031V42.6699C130.239 43.0538 130.162 43.4343 130.009 43.7861C129.855 44.138 129.628 44.4532 129.344 44.7109C129.036 45.0197 128.662 45.2537 128.25 45.3947C127.837 45.5357 127.398 45.5799 126.966 45.5239C126.534 45.468 126.12 45.3133 125.758 45.072C125.395 44.8306 125.092 44.509 124.874 44.1321C124.737 44.1889 124.605 44.255 124.478 44.3301C124.356 44.4063 124.242 44.4748 124.12 44.5357C123.422 44.8585 122.696 45.1136 121.949 45.2973C121.15 45.4811 120.332 45.5705 119.512 45.5638C117.398 45.5941 115.325 44.9689 113.58 43.7742C111.878 42.6215 110.531 41.0184 109.688 39.144C109.394 38.4745 109.164 37.7783 109.003 37.065C108.678 35.6054 108.678 34.0923 109.003 32.6327C109.164 31.9194 109.394 31.2232 109.688 30.5537C110.518 28.6669 111.868 27.0555 113.58 25.9083C115.33 24.7252 117.4 24.106 119.512 24.1338H120.16C120.347 24.1208 120.536 24.1208 120.723 24.1338ZM119.444 39.7608C120.104 39.7652 120.759 39.6384 121.371 39.3877C121.957 39.1461 122.49 38.7916 122.939 38.3443C123.389 37.892 123.75 37.36 124.005 36.7756C124.27 36.1518 124.405 35.4807 124.401 34.8031C124.399 34.1557 124.264 33.5157 124.005 32.9221C123.478 31.7249 122.522 30.7685 121.325 30.2415C120.732 29.9795 120.092 29.8446 119.444 29.8454C118.801 29.8422 118.164 29.9772 117.578 30.2415C116.994 30.5071 116.462 30.876 116.009 31.3305C115.551 31.7873 115.184 32.3275 114.928 32.9221C114.657 33.5203 114.517 34.1694 114.517 34.826C114.517 35.4826 114.657 36.1317 114.928 36.7299C115.199 37.3186 115.576 37.8528 116.04 38.3063C116.498 38.7467 117.029 39.1047 117.608 39.3648C118.184 39.6279 118.811 39.7631 119.444 39.7608Z" fill="#12172E"/>
<path d="M143.265 24.0885C144.664 24.0641 146.054 24.3265 147.348 24.8596C148.642 25.3927 149.813 26.1851 150.789 27.188C151.034 27.4557 151.222 27.771 151.34 28.1143C151.458 28.4575 151.503 28.8214 151.475 29.1832C151.465 29.5419 151.384 29.895 151.236 30.2219C151.089 30.5489 150.877 30.843 150.614 31.0871C150.056 31.5878 149.33 31.8598 148.581 31.8486C148.205 31.8792 147.828 31.8268 147.475 31.6952C147.123 31.5636 146.803 31.356 146.54 31.0871C145.649 30.2668 144.476 29.8221 143.265 29.8458C142.6 29.8413 141.942 29.9844 141.338 30.2647C140.744 30.5347 140.205 30.9116 139.747 31.3765C139.288 31.8261 138.919 32.3584 138.658 32.9453C138.394 33.5292 138.259 34.1629 138.262 34.8035C138.257 35.4664 138.392 36.123 138.658 36.7302C138.917 37.3303 139.295 37.8717 139.77 38.3218C140.229 38.7794 140.768 39.1485 141.361 39.4108C141.959 39.6777 142.612 39.7978 143.265 39.7611C144.469 39.7965 145.642 39.3685 146.54 38.5655C146.801 38.2863 147.116 38.0636 147.466 37.9114C147.817 37.7591 148.195 37.6806 148.577 37.6806C148.959 37.6806 149.337 37.7591 149.687 37.9114C150.038 38.0636 150.353 38.2863 150.614 38.5655C150.879 38.8007 151.091 39.0886 151.239 39.4108C151.385 39.7317 151.465 40.0788 151.475 40.4313C151.493 40.7832 151.441 41.1352 151.322 41.467C151.21 41.8031 151.028 42.1119 150.789 42.3732C149.816 43.3686 148.66 44.1675 147.385 44.7265C146.077 45.2557 144.676 45.5147 143.265 45.488C141.832 45.4956 140.413 45.2024 139.099 44.6274C136.535 43.5048 134.488 41.4574 133.365 38.893C132.793 37.5949 132.5 36.1914 132.504 34.773C132.503 33.3697 132.796 31.9817 133.365 30.6987C133.928 29.4258 134.724 28.2688 135.711 27.287C136.711 26.3128 137.873 25.5192 139.145 24.9414C140.441 24.3652 141.847 24.0743 143.265 24.0885Z" fill="#12172E"/>
<path d="M164.429 24.089C165.834 24.0874 167.224 24.3887 168.503 24.9724C171.075 26.1305 173.138 28.185 174.306 30.7525C174.89 32.0231 175.192 33.4055 175.189 34.804C175.202 35.154 175.13 35.502 174.98 35.8186C174.83 36.1353 174.607 36.4115 174.329 36.6241C173.709 37.0781 172.947 37.2968 172.181 37.2409H160.4C160.876 38.1677 161.651 38.9074 162.598 39.3411C163.546 39.7748 164.611 39.8773 165.624 39.6322C165.922 39.554 166.213 39.4495 166.492 39.32C166.741 39.2051 166.995 39.1035 167.254 39.0154C167.53 38.9188 167.822 38.8724 168.114 38.8783C168.693 38.8944 169.254 39.0797 169.729 39.4113C170.171 39.72 170.523 40.1405 170.749 40.6298C170.984 41.1453 171.056 41.7199 170.957 42.2775C170.858 42.8351 170.592 43.3493 170.193 43.7522C169.417 44.391 168.51 44.8512 167.536 45.1001C166.522 45.3559 165.482 45.4964 164.436 45.519C163.037 45.5841 161.643 45.3234 160.362 44.7574C159.085 44.1904 157.923 43.3927 156.935 42.4043C155.937 41.4084 155.141 40.2293 154.589 38.9316C154.018 37.6333 153.722 36.2302 153.721 34.8116C153.722 33.4224 154.018 32.0493 154.589 30.783C155.135 29.5082 155.909 28.3441 156.874 27.3484C157.858 26.3578 159.014 25.5551 160.286 24.98C161.586 24.3861 162.999 24.082 164.429 24.089ZM168.457 32.3289C168.173 31.7853 167.783 31.3037 167.311 30.9119C166.839 30.5201 166.294 30.2261 165.707 30.0468C165.121 29.8675 164.504 29.8067 163.894 29.8677C163.283 29.9287 162.691 30.1104 162.152 30.4022C161.396 30.8647 160.789 31.5331 160.4 32.3289H168.457Z" fill="#12172E"/>
<path d="M19.9632 26.4489L26.4135 19.9757C25.5584 19.9536 24.7079 20.1061 23.9138 20.4239C23.1197 20.7416 22.3987 21.2181 21.795 21.8239C21.1913 22.4298 20.7174 23.1524 20.4025 23.9476C20.0875 24.7428 19.938 25.5939 19.9632 26.4489Z" fill="#12172E"/>
<path d="M72.6238 32.4878C71.5404 29.5472 69.6539 26.9695 67.1787 25.0474C66.9334 24.8741 66.74 24.6371 66.6192 24.3621C66.4984 24.087 66.4549 23.7842 66.4934 23.4863C66.5581 22.2559 66.5581 21.0231 66.4934 19.7928C66.451 16.9272 65.4545 14.1574 63.6615 11.9217C61.8685 9.68592 59.3813 8.11171 56.5933 7.44805C54.4 6.92258 52.024 7.09013 49.7393 6.88451C49.2988 6.83523 48.8841 6.6518 48.5513 6.35904C47.6451 5.52895 46.8607 4.55419 45.9316 3.75456C42.398 0.708367 38.3694 -0.730969 33.7011 0.36566C30.0152 1.23383 27.2508 3.54131 24.8062 6.31335C24.4695 6.64722 24.023 6.84747 23.5497 6.87689C22.2474 6.94543 20.9452 6.87689 19.6505 6.87689C13.8323 7.13582 8.98886 10.7912 7.60285 16.3277C7.16339 18.4615 6.96415 20.6379 7.00884 22.8161C7.00884 23.7604 7.00885 24.4686 6.11022 25.1007C5.2429 25.7693 4.4558 26.5359 3.76464 27.3854C1.66432 29.6256 0.358554 32.4941 0.048302 35.5492C-0.340088 40.3317 1.63994 44.1699 5.04406 47.2923C6.42246 48.5488 7.32869 49.7368 6.8413 51.6483C6.8413 52.4098 6.80322 53.1714 6.8413 53.9329C6.95333 56.7481 7.98064 59.4499 9.76734 61.6283C11.554 63.8067 14.0026 65.3428 16.7414 66.0035C18.8661 66.5137 21.1432 66.43 23.3517 66.529C23.6478 66.5023 23.946 66.5479 24.2206 66.662C24.4953 66.7761 24.738 66.9552 24.9281 67.1839C25.6617 68.0875 26.4775 68.9212 27.365 69.6742C31.5916 73.2763 36.3056 74.5481 41.6288 72.4234C44.4313 71.3039 46.5865 69.3086 48.5589 67.0925C48.8784 66.7806 49.301 66.5964 49.7469 66.5747C51.0416 66.5061 52.3514 66.5747 53.6461 66.5747C56.391 66.4932 59.0416 65.5551 61.2266 63.8917C63.4116 62.2284 65.0216 59.9232 65.8308 57.299C66.5137 54.8897 66.7334 52.3727 66.4781 49.8815C66.4452 49.6162 66.4852 49.347 66.5939 49.1028C66.7026 48.8585 66.8758 48.6486 67.095 48.4955C67.98 47.7576 68.8097 46.9558 69.5776 46.0966C73.0046 42.1213 74.3754 37.6282 72.6238 32.4878ZM64.4143 18.7799C65.1759 23.8747 63.8736 28.68 61.8555 33.2493C60.6904 35.8919 59.2054 38.3898 57.865 40.9562L57.5909 40.8419V32.3659L59.3501 35.1532C60.5305 33.8738 60.7132 33.2493 59.6546 32.008C57.6832 29.561 56.4896 26.5797 56.2277 23.4482C56.1287 22.6409 55.885 21.8566 55.6261 20.699L63.0207 24.2402C63.5538 22.6029 63.47 22.2449 61.985 21.5443C59.9517 20.5772 57.8803 19.6937 55.7936 18.8484C55.5277 18.7593 55.285 18.6118 55.0834 18.4168C54.8818 18.2218 54.7263 17.9842 54.6284 17.7213C53.3719 14.7513 52.0468 11.8117 50.775 8.91021C56.1592 8.18674 63.2568 10.6846 64.4372 18.8103L64.4143 18.7799ZM46.2743 66.529C44.0886 68.9279 41.5298 70.7251 38.2019 71.2277C34.6987 71.7608 31.7592 70.5347 29.1014 68.41C28.2865 67.7551 27.5783 66.9783 26.8853 66.3462C30.1218 65.0668 33.2137 63.8254 36.3284 62.6374C36.6769 62.5682 37.0384 62.6165 37.3565 62.7746C39.4889 63.597 41.5907 64.5032 43.7459 65.2648C45.4899 65.8816 45.528 65.8055 46.5027 64.1453L38.8339 61.4266C41.0044 59.9035 42.893 58.4337 44.972 57.2838C46.0534 56.6898 47.4775 56.7126 48.7417 56.4613C48.9411 56.4073 49.145 56.3716 49.3509 56.3547C50.874 56.3547 51.5594 55.4104 51.6356 53.8416L48.9625 54.3975C49.7195 53.3683 50.5656 52.4075 51.4909 51.5265C53.0673 50.209 53.1967 48.4802 53.4937 46.4545L52.1991 47.8634C46.4113 54.1233 39.824 59.2867 31.8353 62.4318C28.3559 63.8899 24.6187 64.6332 20.8462 64.6175C13.6343 64.4804 8.85941 59.7131 8.75279 52.486C8.66902 46.9191 10.4663 41.8701 13.0022 37.0266C13.8181 35.4713 14.7498 33.9795 15.7895 32.5639V40.8191L14.0684 38.1004C13.0251 39.2732 12.8575 40.385 13.9161 41.5806C15.9266 43.8653 16.7338 46.5536 17.1222 49.4931C17.3583 51.2752 17.5715 51.3361 19.582 51.6788C17.1602 41.8701 17.1602 31.6195 19.582 21.8108C17.8685 21.8794 17.4801 22.1916 17.145 23.7376C17.0339 24.1346 16.9524 24.5393 16.9013 24.9484C16.7294 27.2391 15.8181 29.4119 14.3045 31.1398C13.5175 32.2175 12.7879 33.336 12.1188 34.4906C11.1669 31.7491 10.2987 29.2664 9.43056 26.7914C7.82369 27.5986 7.69423 27.7814 8.28824 29.4949C9.04978 31.5891 9.81134 33.6529 10.6795 35.7015C10.7999 35.9536 10.8623 36.2294 10.8623 36.5087C10.8623 36.7881 10.7999 37.0639 10.6795 37.3159C9.43818 40.3621 8.28062 43.4084 7.07738 46.5003C6.81845 46.2642 6.38437 45.9138 6.00359 45.5102C3.36863 42.7534 1.63993 39.593 2.04355 35.6558C2.42433 31.9394 4.48051 29.0989 7.23732 26.7381C11.5934 22.9989 16.7567 20.897 22.2474 19.4805C28.276 18.0124 34.4925 17.4681 40.6845 17.866C40.9409 17.8976 41.201 17.8716 41.4461 17.7899C40.1514 16.9446 39.1614 15.6347 37.3261 15.7489C35.803 15.8403 34.1961 15.7489 32.4902 15.7489L35.1861 13.9821C33.5336 12.7865 33.2975 12.6494 31.8429 13.8375C29.5336 15.7129 26.718 16.8581 23.7553 17.1273C22.7294 17.297 21.7127 17.5182 20.7091 17.7899L24.2275 10.38C22.8034 9.7936 22.2398 9.93069 21.5696 11.3472C20.5872 13.4567 19.7267 15.6118 18.7824 17.729C18.6471 18.094 18.3956 18.4044 18.0665 18.6123C15.0812 19.9527 12.0731 21.2397 9.12594 22.5191C8.3644 18.0488 10.2226 12.6723 14.5406 10.38C17.3547 8.93567 20.5487 8.40334 23.6791 8.8569C31.584 9.7936 38.3237 13.4262 44.4085 18.2925C47.3404 20.6304 49.9221 23.4025 52.6561 25.9842C52.8998 26.2202 53.1206 26.4715 53.4176 26.7457C53.4176 24.3164 52.9454 23.2425 51.3157 21.6661L48.498 18.9779C48.498 18.9779 48.498 18.9093 48.4447 18.8103L51.6508 19.4958C51.4224 17.5919 51.27 17.4244 49.5337 17.036C49.2045 16.943 48.8683 16.8767 48.5284 16.838C46.2017 16.6638 43.9943 15.7392 42.2381 14.203C41.1203 13.3789 39.9585 12.6162 38.7578 11.9183L46.4799 9.16153C45.7945 7.63844 45.4594 7.44803 43.9363 7.99634C41.7811 8.75789 39.6564 9.61084 37.5469 10.4866C37.2944 10.6054 37.0188 10.667 36.7397 10.667C36.4606 10.667 36.185 10.6054 35.9324 10.4866C32.97 9.27576 29.9771 8.15629 26.9462 6.97589C28.738 4.75208 31.1625 3.12427 33.8991 2.3076C37.8668 1.20335 41.3242 2.39899 44.378 4.92733C48.2619 8.14868 50.5618 12.4514 52.3134 17.0664C54.0828 21.8747 55.1374 26.9165 55.4433 32.0308C56.0682 39.5775 55.2093 47.1734 52.915 54.3899C51.6174 58.8782 49.3593 63.0307 46.2971 66.5594L46.2743 66.529ZM50.5085 64.5489C50.638 64.29 50.7445 64.0615 50.8512 63.8331C52.1077 61.1524 53.3871 58.5022 54.5904 55.7835C54.6933 55.5059 54.8536 55.2532 55.061 55.0419C55.2684 54.8306 55.518 54.6655 55.7936 54.5574C58.4743 53.3694 61.1245 52.0976 63.767 50.8563C64.0031 50.7421 64.224 50.6126 64.4829 50.4755C65.3587 58.0377 61.094 65.3181 50.5389 64.5794L50.5085 64.5489ZM69.6919 42.5554C67.0036 47.1628 60.4695 51.0086 55.7936 52.387C56.2201 50.0338 56.6466 47.6654 57.073 45.297C57.1018 45.1645 57.1589 45.0397 57.2406 44.9314L61.4291 38.839L64.1478 46.5155C65.7851 45.5788 65.8842 45.4798 65.2673 43.7663C64.5058 41.6492 63.668 39.5625 62.7923 37.4835C62.6771 37.2462 62.6172 36.9858 62.6172 36.722C62.6172 36.4581 62.6771 36.1978 62.7923 35.9604C64.0107 32.9675 65.1454 29.9442 66.3411 26.8675C68.2012 28.4224 69.6632 30.3988 70.6057 32.6325C71.2726 34.24 71.5399 35.9853 71.3847 37.7188C71.2296 39.4523 70.6565 41.1223 69.7147 42.5859L69.6919 42.5554Z" fill="#12172E"/>
<path d="M37.3869 51.7325H37.7068C38.1902 51.7305 38.6531 51.5371 38.9942 51.1945C39.3354 50.852 39.5269 50.3882 39.5269 49.9048V49.2422C39.5249 48.7601 39.3325 48.2984 38.9916 47.9575C38.6507 47.6166 38.1889 47.4241 37.7068 47.4221H35.0337C34.5516 47.4241 34.0898 47.6166 33.7489 47.9575C33.408 48.2984 33.2156 48.7601 33.2136 49.2422V49.9048C33.2136 50.3882 33.4051 50.852 33.7463 51.1945C34.0874 51.5371 34.5503 51.7305 35.0337 51.7325H35.2165C34.5083 53.446 32.8786 54.8549 30.3198 53.7582C28.4344 53.037 26.6442 52.0882 24.9889 50.9329C23.1993 49.6992 21.6153 48.1608 19.9855 46.79C19.7875 49.0747 20.9146 50.5978 22.7804 51.7858C23.3592 52.1513 23.8618 52.6235 24.433 53.0043C25.4078 53.6516 26.3978 54.2685 27.5629 55.0072C21.4863 54.194 15.6342 52.1716 10.352 49.0595C9.85696 51.0319 9.86457 51.1766 11.441 51.9229C13.4819 52.8825 15.5533 53.7658 17.64 54.6112C17.906 54.7013 18.148 54.8511 18.3473 55.0491C18.5466 55.2471 18.698 55.488 18.7899 55.7535C19.6505 57.8782 20.5491 59.9801 21.5239 62.0515C22.194 63.4908 22.7119 63.5746 24.1893 63.0339C23.047 60.6426 21.9046 58.2437 20.7623 55.8372C26.0543 56.9727 31.4426 57.6 36.8538 57.7107C38.8186 57.7716 40.0371 56.6673 41.6287 55.5783H34.4702C35.1927 55.1698 35.8241 54.6179 36.3257 53.9566C36.8272 53.2953 37.1884 52.5384 37.3869 51.7325Z" fill="#12172E"/>
<path d="M37.7679 34.7049C37.3849 35.0232 36.9027 35.1975 36.4047 35.1975C35.9067 35.1975 35.4244 35.0232 35.0415 34.7049C35.0652 34.7704 35.0986 34.832 35.1405 34.8877C35.6736 35.6949 36.953 35.7787 37.9963 35.0857C39.0396 34.3927 39.4585 33.1742 38.9178 32.3745C38.8814 32.3138 38.8379 32.2576 38.7883 32.207C38.9294 32.6773 38.9051 33.1817 38.7194 33.6362C38.5337 34.0908 38.1979 34.4679 37.7679 34.7049Z" fill="#FBBF19"/>
<path d="M48.5133 48.5345L48.4067 44.7496L42.3143 38.6953L39.7402 40.5306L44.0887 48.5116L48.5133 48.5345Z" fill="#FBBF19"/>
<path d="M40.4559 35.572C39.489 36.6891 38.2125 37.4944 36.7879 37.8862C35.3634 38.2779 33.8546 38.2384 32.4525 37.7727C31.0503 37.307 29.8177 36.436 28.9105 35.2699C28.0034 34.1037 27.4623 32.6947 27.3559 31.2211C27.2494 29.7475 27.5822 28.2754 28.3123 26.9909C29.0425 25.7065 30.137 24.6673 31.4577 24.0049C32.7783 23.3425 34.2657 23.0865 35.7318 23.2694C37.1979 23.4522 38.5769 24.0657 39.6944 25.0322C41.1916 26.3298 42.1127 28.1685 42.2555 30.1446C42.3982 32.1207 41.751 34.0727 40.4559 35.572ZM29.977 26.502C29.1514 27.4545 28.6267 28.6305 28.4693 29.8812C28.312 31.1319 28.529 32.4011 29.0929 33.5285C29.6569 34.6559 30.5424 35.5907 31.6376 36.2149C32.7328 36.839 33.9885 37.1244 35.2459 37.035C36.5032 36.9456 37.7059 36.4853 38.7017 35.7124C39.6975 34.9396 40.4419 33.8888 40.8406 32.693C41.2393 31.4971 41.2744 30.2099 40.9416 28.9941C40.6088 27.7782 39.923 26.6884 38.9709 25.8623C37.6919 24.7579 36.0274 24.2051 34.3419 24.325C32.6563 24.4449 31.0868 25.2277 29.977 26.502Z" fill="#FBBF19"/>
<path d="M38.2246 38.2826L39.2832 39.8133L41.8191 38.0389L40.7377 36.4473L38.2246 38.2826Z" fill="#FBBF19"/>
<path d="M38.0346 32.1001C38.0371 32.1903 38.0161 32.2795 37.9736 32.3591C37.8975 32.519 37.8213 32.6865 37.7528 32.854C37.7184 32.9474 37.7184 33.05 37.7528 33.1434C37.7641 33.191 37.7641 33.2406 37.7528 33.2881C37.7473 33.3165 37.7355 33.3432 37.7182 33.3664C37.7009 33.3895 37.6786 33.4084 37.6529 33.4216C37.6272 33.4348 37.5989 33.442 37.57 33.4426C37.5411 33.4432 37.5125 33.4373 37.4862 33.4252C37.4386 33.4061 37.3968 33.3751 37.3648 33.335C37.3328 33.295 37.3116 33.2474 37.3035 33.1968C37.2854 33.1356 37.2843 33.0706 37.3004 33.0089C37.3165 32.9471 37.3492 32.891 37.3949 32.8464C37.4042 32.8302 37.4091 32.8119 37.4091 32.7932C37.4091 32.7744 37.4042 32.7561 37.3949 32.7398C37.3949 32.6789 37.3949 32.618 37.3949 32.557C37.3878 32.534 37.3854 32.5099 37.3877 32.486C37.39 32.462 37.397 32.4388 37.4084 32.4175C37.4197 32.3963 37.4351 32.3775 37.4537 32.3623C37.4723 32.347 37.4937 32.3355 37.5167 32.3286C37.5712 32.3109 37.6205 32.2802 37.6603 32.239C37.7002 32.1978 37.7293 32.1475 37.7452 32.0925C37.7708 32.0063 37.8279 31.9329 37.9051 31.8869C37.9736 31.8412 38.027 31.8869 38.0498 31.9402C38.0482 31.9938 38.0431 32.0472 38.0346 32.1001Z" fill="#12172E"/>
</svg>
